HIERARCHY
ROOT Hips
{
  OFFSET 110.851 94.6018 204.793
  CHANNELS 6 Xposition Yposition Zposition Zrotation Xrotation Yrotation
  JOINT RightUpLeg
  {
    OFFSET -8.9458 -8.66707 0.101652
    CHANNELS 3 Zrotation Xrotation Yrotation
    JOINT RightLeg
    {
      OFFSET 0 -44.4227 1.3727
      CHANNELS 3 Zrotation Xrotation Yrotation
      JOINT RightFoot
      {
        OFFSET 0.253549 -42.0924 -1.46059
        CHANNELS 3 Zrotation Xrotation Yrotation
        JOINT RightToes
        {
          OFFSET 0.04 -4.41509 8.4991
          CHANNELS 3 Zrotation Xrotation Yrotation
          End Site
          {
            OFFSET -0.08 -0.137448 9.77979
          }
        }
      }
    }
  }
  JOINT Spine
  {
    OFFSET 0 11.8905 0
    CHANNELS 3 Zrotation Xrotation Yrotation
    JOINT Spine1
    {
      OFFSET 0 25.6574 0.127663
      CHANNELS 3 Zrotation Xrotation Yrotation
      JOINT HEad
      {
        OFFSET 0 8.73416 0.011341
        CHANNELS 3 Zrotation Xrotation Yrotation
        End Site
        {
          OFFSET -0.29 12.7742 2.51395
        }
      }
      JOINT LeftShoulder1
      {
        OFFSET 8.99 -0.362252 -0.22
        CHANNELS 3 Zrotation Xrotation Yrotation
        JOINT LeftArm
        {
          OFFSET 10.2827 -0.00338 0.322123
          CHANNELS 3 Zrotation Xrotation Yrotation
          JOINT LeftForeArm
          {
            OFFSET 32.7669 0.099144 -1.42434
            CHANNELS 3 Zrotation Xrotation Yrotation
            JOINT LeftHand
            {
              OFFSET 27.5643 0.085362 1.02216
              CHANNELS 3 Zrotation Xrotation Yrotation
              End Site
              {
                OFFSET 16.7443 -0.6 1.50291
              }
            }
          }
        }
      }
      JOINT RightShoulder
      {
        OFFSET -8.99 -0.362252 -0.22
        CHANNELS 3 Zrotation Xrotation Yrotation
        JOINT RightArm
        {
          OFFSET -10.2827 -0.00338 0.322123
          CHANNELS 3 Zrotation Xrotation Yrotation
          JOINT RightForeArm
          {
            OFFSET -32.8971 0.099144 -1.42434
            CHANNELS 3 Zrotation Xrotation Yrotation
            JOINT RightHand
            {
              OFFSET -27.4921 0.085362 1.02216
              CHANNELS 3 Zrotation Xrotation Yrotation
              End Site
              {
                OFFSET -16.6312 -0.6 1.50291
              }
            }
          }
        }
      }
    }
  }
  JOINT LeftUpLeg
  {
    OFFSET 8.9458 -8.66707 0.101652
    CHANNELS 3 Zrotation Xrotation Yrotation
    JOINT LeftLeg
    {
      OFFSET 0 -44.4227 1.3727
      CHANNELS 3 Zrotation Xrotation Yrotation
      JOINT LeftFoot
      {
        OFFSET -0.253549 -42.0924 -1.46059
        CHANNELS 3 Zrotation Xrotation Yrotation
        JOINT LeftToes
        {
          OFFSET -0.04 -4.41509 8.4991
          CHANNELS 3 Zrotation Xrotation Yrotation
          End Site
          {
            OFFSET 0.08 -0.047448 9.77979
          }
        }
      }
    }
  }
}
MOTION
Frames:	7
Frame Time:	0.0166667
111.136 94.8303 253.687 -3.64274 0.494786 -174.597 -3.33078 -29.6712 1.98973 2.63158 36.5627 -21.6055 5.90944 -5.63899 -0.0466651 0.204186 -2.90617 0.617604 -5.45389 3.17349 -6.0413 -0.704474 -8.7805 -6.19538 1.27175 0.565935 9.49309 9.93923e-017 0 -1.59028e-015 -134.876 -53.7972 -67.5443 8.10219 9.86885 1.21071 0.368473 9.90896 -0.00117928 27.3817 1.70246 1.5757 150.355 -69.0907 107.178 -20.7825 0.756788 4.21279 -0.369625 9.91382 0.00119889 -9.40026 1.18862 -6.88466 -2.21768 22.7441 12.1451 1.51368 -14.3228 0.281417 -4.86253 -9.53044 0.541552 
111.068 94.7494 251.076 -3.284 0.460625 -173.074 -3.13603 -28.2101 3.37724 2.76781 27.6075 -24.8727 5.80462 -3.81889 -0.13624 -0.749505 -3.78014 1.70941 -5.52524 3.27419 -6.39135 -0.982845 -9.4625 -6.46508 2.41948 1.14149 8.66798 -1.98785e-016 -1.59028e-015 -0 -135.049 -51.5939 -67.1995 9.14594 9.68545 0.785139 0.368473 9.90896 -0.00117928 30.2104 1.40121 0.406329 152.697 -70.7954 113.005 -20.8996 0.577379 4.26936 -0.369625 9.91382 0.00119889 -8.56117 2.93754 -6.22187 -1.99645 22.6268 10.7443 1.05285 -14.5263 0.225793 -4.44735 -9.88107 0.136577 
111.023 94.6615 248.437 -2.95689 0.481866 -171.551 -2.99287 -26.6874 4.50302 1.92295 19.402 -27.4113 5.60471 -2.26904 -0.208445 -1.47719 -4.28237 2.56149 -5.56262 3.44936 -6.76162 -1.33114 -10.1669 -6.77079 3.63382 1.76885 7.90044 -0 -1.59028e-015 -0 -134.904 -49.5928 -66.6216 9.99957 9.53785 0.436653 0.368473 9.90896 -0.00117928 32.9331 1.0775 -0.739778 156.173 -72.2129 119.802 -21.1202 0.338467 4.3712 -0.369625 9.91382 0.00119889 -7.7236 4.72377 -5.70982 -1.80214 22.5231 9.48935 0.674661 -14.5197 0.177743 -3.94566 -10.4008 -0.376218 
111.052 94.5595 245.723 -2.6934 0.699066 -170.009 -2.75641 -24.8267 4.89743 0.701083 12.0015 -27.6832 4.99358 -1.35679 -0.232804 -1.55184 -3.69211 2.61287 -5.51337 3.87608 -7.18036 -1.85668 -10.9465 -7.16717 5.12864 2.50816 7.29863 -3.97569e-016 0 -7.95139e-016 -133.747 -48.0116 -65.1401 10.4173 9.48691 0.323289 0.368473 9.90896 -0.00117928 35.4845 0.671616 -1.87617 160.703 -73.2551 127.184 -21.5816 -0.0462529 4.57979 -0.369625 9.91382 0.00119889 -6.74092 6.69792 -5.67341 -1.70357 22.3762 8.73839 0.58415 -13.8969 0.155753 -3.2541 -11.5041 -1.2051 
111.093 94.4364 242.958 -2.56063 0.907729 -168.502 -2.62235 -23.2787 5.13368 0.00557109 6.28387 -27.8321 4.50438 -1.06109 -0.232929 -1.55881 -2.69892 2.57278 -5.39223 4.32042 -7.64509 -2.50306 -11.7339 -7.6298 6.46099 3.37602 6.76675 8.94531e-016 0 -0 -132.268 -46.8575 -63.4284 10.3931 9.49664 0.276359 0.368473 9.90896 -0.00117928 37.68 0.277372 -2.87081 166.427 -73.8619 135.31 -22.28 -0.555324 4.89215 -0.369625 9.91382 0.00119889 -5.80661 8.53201 -5.7309 -1.55048 22.4878 7.98534 0.500623 -13.0359 0.135654 -2.3837 -12.6198 -2.16701 
111.099 94.2769 240.159 -2.68704 0.879136 -167.023 -2.9728 -22.856 5.77128 0.224404 3.86561 -29.472 4.86253 -1.84225 -0.216691 -2.19138 -1.43838 3.22246 -5.17538 4.58357 -8.24236 -3.4018 -12.5274 -8.22863 7.20629 4.51876 6.24607 -1.09332e-015 0 3.97569e-016 -130.692 -46.3589 -61.7769 9.74791 9.55232 0.140083 0.368473 9.90896 -0.00117928 39.3296 -0.0364995 -3.58847 173.481 -73.8904 144.185 -23.3142 -1.22276 5.35199 -0.369625 9.91382 0.00119889 -5.21068 9.87493 -5.60292 -1.16109 23.1731 6.73684 0.176709 -12.2627 0.0933087 -1.32454 -13.2367 -3.07047 
111.086 94.0977 237.3 -2.8453 0.840227 -165.738 -3.23801 -22.7724 6.29732 0.749725 3.49962 -30.8935 5.18622 -2.62355 -0.200491 -2.73088 -0.851296 3.7829 -4.94901 4.73986 -8.72943 -4.08851 -13.1829 -8.73263 7.54005 5.60906 5.73363 1.98785e-016 -1.59028e-015 3.97569e-016 -129.318 -46.2159 -60.2279 8.75124 9.64994 0.0345169 0.368473 9.90896 -0.00117928 40.4203 -0.256247 -4.05214 -179.49 -73.4107 152.621 -24.5019 -1.96712 5.88171 -0.369625 9.91382 0.00119889 -4.66839 10.9609 -5.27904 -0.598468 24.3015 5.27515 -0.281561 -11.3275 0.0471694 0.11221 -13.5966 -4.11759 
